<?xml version="1.0" standalone="no"?>
<!DOCTYPE svg PUBLIC "-//W3C//DTD SVG 20010904//EN"
 "http://www.w3.org/TR/2001/REC-SVG-20010904/DTD/svg10.dtd">
<svg version="1.0" xmlns="http://www.w3.org/2000/svg"
 width="700.000000pt" height="700.000000pt" viewBox="0 0 700.000000 700.000000"
 preserveAspectRatio="xMidYMid meet">
<metadata>
Created by potrace 1.11, written by Peter Selinger 2001-2013
</metadata>
<g transform="translate(0.000000,700.000000) scale(0.100000,-0.100000)"
fill="#000000" stroke="none">
<path d="M2537 5994 c-1 -1 -69 -4 -152 -8 -82 -3 -163 -8 -180 -10 -16 -2
-59 -7 -95 -11 -36 -4 -72 -9 -82 -10 -9 -2 -38 -7 -65 -11 -26 -5 -50 -9 -53
-9 -3 -1 -25 -5 -50 -9 -79 -14 -272 -64 -360 -94 -466 -159 -795 -419 -979
-773 -99 -190 -149 -370 -176 -631 l-6 -58 666 0 c525 0 665 3 665 13 3 81 44
228 90 322 65 132 153 222 280 286 162 81 270 102 520 103 343 1 540 -51 678
-179 109 -101 163 -240 167 -438 6 -213 -68 -338 -252 -431 -47 -23 -185 -74
-223 -81 -8 -2 -33 -8 -55 -13 -22 -6 -56 -13 -75 -17 -81 -13 -369 -54 -420
-60 -30 -3 -68 -8 -85 -10 -16 -3 -68 -9 -115 -15 -47 -5 -103 -12 -125 -15
-22 -3 -56 -7 -75 -10 -19 -3 -51 -8 -70 -10 -36 -5 -77 -11 -140 -20 -19 -3
-52 -7 -73 -10 -21 -2 -41 -6 -45 -9 -4 -2 -32 -7 -62 -11 -30 -3 -73 -11 -95
-17 -22 -5 -51 -12 -65 -15 -77 -13 -345 -94 -405 -122 -242 -112 -326 -165
-454 -285 -135 -129 -267 -341 -307 -496 -38 -149 -52 -223 -59 -320 -6 -80
-6 -261 -1 -315 18 -172 44 -290 92 -417 152 -400 476 -675 954 -808 65 -18
150 -34 290 -55 131 -19 469 -20 607 -1 21 3 61 8 88 11 52 5 146 23 275 52
41 9 80 18 85 19 6 1 60 19 120 39 235 79 508 237 665 384 41 39 78 70 83 71
4 0 7 -21 8 -47 0 -27 2 -57 4 -68 2 -11 11 -56 19 -100 9 -44 25 -117 37
-162 l22 -82 674 0 673 -1 -21 42 c-44 85 -81 217 -105 368 -3 19 -7 45 -9 57
-2 12 -6 57 -10 100 -4 43 -9 89 -12 103 -4 14 -8 543 -10 1175 -4 1402 -8
1917 -17 1970 -13 72 -48 210 -57 220 -5 5 -9 16 -9 24 0 8 -20 56 -44 106
-102 209 -272 382 -491 500 -38 21 -75 41 -80 46 -6 4 -37 17 -70 30 -33 12
-64 25 -70 29 -23 17 -302 99 -390 115 -158 28 -243 41 -330 50 -33 4 -76 8
-95 10 -82 10 -535 26 -543 19z m870 -2941 c-5 -371 -8 -404 -38 -528 -120
-486 -467 -728 -1044 -728 -82 0 -231 12 -280 23 -22 5 -51 11 -65 13 -46 9
-125 39 -184 70 -115 61 -206 168 -246 290 -33 100 -42 267 -19 365 6 26 12
54 14 62 30 133 152 280 293 353 128 66 341 134 479 153 26 3 55 7 63 9 17 3
78 12 135 20 22 3 67 10 100 15 33 5 78 12 100 14 85 11 194 30 340 60 97 20
258 88 310 131 17 13 34 24 38 25 5 0 6 -156 4 -347z"/>
<path d="M5350 1759 l0 -719 730 1 730 0 0 718 0 718 -730 0 -730 0 0 -718z"/>
</g>
</svg>
