<?xml version="1.0" encoding="utf-8"?>
<!-- Generator: Adobe Illustrator 16.0.0, SVG Export Plug-In . SVG Version: 6.00 Build 0)  -->
<!DOCTYPE svg PUBLIC "-//W3C//DTD SVG 1.1 Tiny//EN" "http://www.w3.org/Graphics/SVG/1.1/DTD/svg11-tiny.dtd">
<svg version="1.1" baseProfile="tiny" id="Capa_1" xmlns="http://www.w3.org/2000/svg" xmlns:xlink="http://www.w3.org/1999/xlink"
	 x="0px" y="0px" width="765.218px" height="245.652px" viewBox="0 0 765.218 245.652" xml:space="preserve">
<path fill="#FFFFFF" d="M165.59,217.33c-14.066,0-26.548,0.127-39.02-0.172c-1.447-0.035-3.347-2.2-4.126-3.797
	c-1.073-2.202-1.278-4.805-2.091-8.232c-10.95,9.327-23.112,14.467-36.85,15.846c-12.889,1.294-25.594,0.431-37.538-4.735
	c-16.634-7.193-25.365-22.284-24.207-40.824c1.111-17.773,11.095-31.668,28.684-36.171c16.153-4.135,32.895-6.091,49.377-9.015
	c3.021-0.536,6.049-1.046,9.049-1.678c6.193-1.305,11.143-3.827,11.629-10.972c0.525-7.711-2.819-14.366-9.523-16.966
	c-10.758-4.17-22.121-4.74-32.344,0.335c-4.524,2.246-7.698,8.244-9.98,13.195c-1.723,3.737-3.127,5.537-7.455,5.404
	c-8.739-0.27-17.508-0.396-26.236,0.006c-6.258,0.287-7.246-2.566-6.303-7.561c3.484-18.432,14.532-30.888,32.56-36.667
	c22.828-7.316,46.137-7.106,69.108-0.488c21.224,6.115,30.418,18.635,30.535,40.233c0.084,15.636-0.332,31.275-0.216,46.911
	C160.777,180.03,158.221,198.275,165.59,217.33 M120.219,150.551c-13.789,2.69-27.133,5.255-40.45,7.941
	c-1.813,0.366-3.534,1.273-5.231,2.065c-7.976,3.728-10.97,8.993-10.181,17.772c0.686,7.643,5.34,13.305,13.171,15.244
	c11.474,2.841,21.895,0.204,31.495-6.304C122.95,177.83,120.17,163.856,120.219,150.551"/>
<path fill="#FFFFFF" d="M688.606,217.299c-13.928,0-26.432,0.599-38.783-0.467c-2.724-0.235-4.908-6.37-7.704-10.301
	c-9.717,7.762-21.978,13.196-35.949,14.468c-14.88,1.354-29.36,0.19-42.437-7.637c-14.724-8.813-19.361-22.58-18.646-38.444
	c0.676-14.968,7.406-27.575,21.918-32.708c14.688-5.194,30.545-7.312,45.938-10.555c6.226-1.311,12.646-1.752,18.855-3.113
	c5.039-1.105,10.422-2.408,11.299-8.78c0.921-6.697,0.164-12.888-5.934-17.341c-8.31-6.068-29.822-6.822-37.827-0.283
	c-3.675,3.002-5.146,8.446-8.104,12.439c-1.509,2.035-4.025,4.596-6.211,4.712c-9.426,0.501-18.899,0.054-28.352,0.224
	c-4.702,0.085-5.562-1.995-4.916-6.001c3.115-19.312,14.042-32.479,33.117-38.413c22.413-6.974,45.224-6.878,67.739-0.453
	c21.714,6.196,31.074,18.317,31.369,40.313c0.238,17.693-0.418,35.398-0.56,53.1C683.293,184.093,681.902,200.24,688.606,217.299
	 M642.536,150.418c-14.367,3.008-28.331,5.318-41.913,8.972c-10.509,2.826-13.981,9.125-12.972,19.28
	c0.88,8.833,5.934,14.227,16.179,15.309c5.706,0.604,11.913,0.18,17.403-1.395C639.629,187.304,646.556,173.132,642.536,150.418"/>
<path fill="#FFFFFF" d="M503.115,199.257c-13.223,15.892-28.913,22.478-47.763,22.226c-30.003-0.401-49.084-17.886-49.766-46.973
	c-0.733-31.253-0.374-62.53-0.661-93.794c-0.042-4.542,1.024-6.709,6.284-6.526c9.913,0.345,19.855,0.31,29.771-0.018
	c4.878-0.159,5.921,1.671,5.896,6.051c-0.137,25.29,0.005,50.581,0.054,75.872c0.004,2.068-0.034,4.14,0.046,6.207
	c0.632,16.298,6.577,23.445,20.538,24.735c15.881,1.468,29.024-6.964,32.182-20.953c0.955-4.23,1.466-8.64,1.501-12.972
	c0.189-23.681,0.316-47.365,0.11-71.045c-0.05-5.806,1.453-8.267,7.932-7.899c9.186,0.521,18.431,0.241,27.645,0.06
	c4.124-0.082,5.857,1.09,5.843,5.471c-0.139,43.914-0.139,87.829-0.009,131.743c0.014,4.58-1.778,6.093-6.236,6.013
	c-8.742-0.159-17.501-0.282-26.231,0.06c-5.691,0.222-7.71-1.986-7.188-7.293C503.352,207.286,503.115,204.304,503.115,199.257"/>
<path fill="#FFFFFF" d="M310.815,162.492c-1.978,26.142-20.408,48.827-45.865,55.013c-29.966,7.282-57.911,3.935-80.612-18.806
	c-29.613-29.666-28.328-108.307,32.578-125.088c24.798-6.832,49.35-5.234,71.125,10.2c13.807,9.786,20.364,23.559,22.031,41.122
	c-13.098,0-25.507,0.131-37.902-0.199c-1.279-0.033-2.959-2.636-3.644-4.353c-5.524-13.84-12.836-19.296-26.703-19.6
	c-13.317-0.292-24.542,6.48-29.431,18.851c-6.596,16.689-6.882,33.784-0.646,50.636c4.917,13.287,15.6,19.757,30.259,19.342
	c14.153-0.4,23.152-6.793,27.067-20.954c1.678-6.069,4.643-7.431,10.314-7.234c9.685,0.336,19.389,0.166,29.085,0.26
	C309.125,161.688,309.775,162.119,310.815,162.492"/>
<path fill="#FFFFFF" d="M329.427,146.026c0-12.42-0.18-24.844,0.09-37.258c0.106-4.884-1.763-6.761-6.605-6.232
	c-1.167,0.127-2.362,0.004-3.544-0.003c-16.083-0.102-13.926,2.26-14.153-14.049c-0.191-13.776-0.103-13.777,14.269-13.769
	c9.961,0.006,9.963,0.006,9.969-9.642c0.005-8.97,0.215-17.946-0.072-26.908c-0.158-4.947,1.432-7.17,6.809-7.025
	c9.686,0.261,19.387,0.187,29.079,0.05c4.223-0.059,5.906,1.527,5.828,5.7c-0.192,10.347,0.199,20.709-0.2,31.045
	c-0.217,5.621,1.937,7.309,7.427,6.894c5.406-0.408,10.879,0.071,16.304-0.192c4.206-0.203,6.104,1.186,5.944,5.452
	c-0.204,5.512-0.228,11.046,0.028,16.555c0.214,4.599-1.906,6.089-6.35,5.957c-5.903-0.177-11.826,0.199-17.728-0.027
	c-3.902-0.148-5.556,1.045-5.53,5.026c0.147,22.308-0.069,44.621,0.254,66.926c0.137,9.426,3.761,12.288,13.811,12.606
	c15.437,0.488,15.706,0.493,15.403,15.387c-0.346,16.963,4.02,15.558-16.121,16.262c-9.389,0.327-18.965-0.114-28.224-1.591
	c-15.658-2.498-24.482-11.667-25.434-27.058C329.777,175.479,329.427,160.731,329.427,146.026
	C329.073,146.025,329.781,146.027,329.427,146.026"/>
<path fill="#DD1C84" d="M714.694,172.691c6.137-0.002,12.312-0.371,18.388,0.221c1.854,0.181,4.852,2.957,4.912,4.627
	c0.423,11.695,0.418,23.418-0.03,35.112c-0.062,1.643-3.243,4.48-5.057,4.538c-12.26,0.393-24.547,0.38-36.805-0.045
	c-1.738-0.061-4.762-3.016-4.824-4.712c-0.421-11.695-0.411-23.418,0.024-35.112c0.059-1.599,3.13-4.241,5.002-4.416
	C702.386,172.338,708.558,172.692,714.694,172.691"/>
<path fill="#FFFFFF" d="M455.649,52.999c6.879-10.702,12.861-20.558,20.011-31.09c1.269-1.868,3.802-4.078,5.808-4.132
	c13.379-0.367,26.774-0.19,41.826-0.19c-9.808,9.774-19.225,17.551-26.577,26.867c-10.797,13.685-25.082,15.856-41.024,13.849"/>
</svg>
