<?xml version="1.0" encoding="utf-8"?>
<!-- Generator: Adobe Illustrator 21.0.2, SVG Export Plug-In . SVG Version: 6.00 Build 0)  -->
<svg version="1.1" baseProfile="tiny" id="Layer_1" xmlns="http://www.w3.org/2000/svg" xmlns:xlink="http://www.w3.org/1999/xlink"
	 x="0px" y="0px" viewBox="0 0 464 91" xml:space="preserve">
<g>
	<polygon fill="#FFFFFF" points="-0.1,90.7 21.5,90.7 21.5,52.6 54.7,52.6 54.7,35.5 21.4,35.5 21.4,17.3 55.8,17.3 57.3,0.1 
		-0.1,0.1 	"/>
	<polygon fill="#FFFFFF" points="85.7,51.7 120.7,51.7 120.7,34.7 85.7,34.7 85.7,17.3 121.8,17.3 123.7,0.1 64.2,0.1 64.2,90.7 
		124.3,90.7 125.2,74 85.7,73.5 	"/>
	<rect x="131.1" y="0.1" fill="#FFFFFF" width="21.5" height="90.6"/>
	<polygon fill="#FFFFFF" points="158.8,17.3 183,17.3 183,90.7 204.4,90.7 204.4,17.3 227.3,17.3 229.2,0.1 160.7,0.1 	"/>
	<path fill="#FFFFFF" d="M330.6,17.2c0.1,0,0.2,0,0.3,0l27.4,0h4.3l1.9-17l0-0.1h-12.1L330.9,0c-0.1,0-0.2,0-0.3,0
		c-20,0-32.9,10.3-32.9,26.1c0,16.2,12.2,22.2,22.7,25.7l10.7,3.6c7.5,2.6,12,4.6,12,10.9c0,2,0,8.4-13.7,8.4l-73.6,0V52.5h34.9
		V35.8h-34.9v-17h36l1.9-18.6h-59.5v90.5h108.3c13.8-3.5,22-13.1,22-26.4c0-18.6-15.8-23.9-26.2-27.5L326.6,33
		c-4.9-1.6-7.5-3.5-7.5-8.5C319.1,22.7,319.1,17.2,330.6,17.2"/>
	<polygon fill="#FFFFFF" points="443.7,0.2 417.5,51.2 391.1,0.2 370.5,0.2 370.5,90.7 391.1,90.7 391.1,41.8 409.3,78 425.7,78 
		443.3,42.4 443.3,90.7 464,90.7 464,0.2 	"/>
</g>
</svg>
