<?xml version="1.0" encoding="utf-8"?>
<!-- Generator: Adobe Illustrator 21.0.2, SVG Export Plug-In . SVG Version: 6.00 Build 0)  -->
<svg version="1.1" baseProfile="tiny" id="Layer_1" xmlns="http://www.w3.org/2000/svg" xmlns:xlink="http://www.w3.org/1999/xlink"
	 x="0px" y="0px" viewBox="0 0 402 109" xml:space="preserve">
<g>
	<path fill="#FFFFFF" d="M151,23.4h-1.7c-0.1-0.6-0.4-1.3-0.8-2.1c-0.4-0.8-0.8-1.6-1.3-2.3c-0.5-0.8-1-1.4-1.6-2
		c-0.6-0.6-1.1-0.9-1.7-1c-0.5-0.1-1.2-0.1-1.9-0.1c-0.8,0-1.5,0-2.1,0h-1.4v27.9c0,0.5,0.1,1,0.3,1.5c0.2,0.5,0.6,0.8,1.2,1
		c0.3,0.1,0.9,0.3,1.9,0.5c0.9,0.2,1.7,0.3,2.2,0.3v1.7h-16.5v-1.7c0.5,0,1.2-0.1,2.1-0.2c0.9-0.1,1.6-0.2,2-0.4
		c0.5-0.2,0.9-0.5,1.2-0.9c0.3-0.4,0.4-0.9,0.4-1.6V15.8h-1.4c-0.5,0-1.1,0-1.9,0c-0.8,0-1.5,0.1-2.2,0.2c-0.5,0.1-1.1,0.4-1.7,1
		c-0.6,0.6-1.1,1.2-1.6,2s-0.9,1.5-1.3,2.4c-0.4,0.8-0.6,1.5-0.8,2.1h-1.7v-9.5H151V23.4z"/>
	<path fill="#FFFFFF" d="M166,43.6c-3.3,4.1-6.9,5-8.5,5c-6.4,0-10.1-5.2-10.1-11.1c0-3.6,1.3-6.8,3.4-9.1c2.1-2.4,4.9-3.8,7.6-3.8
		c4.3,0,7.8,3.8,7.8,7.9c0,1-0.3,1.5-1.2,1.7c-0.9,0.2-7.4,0.7-13.6,0.9c0.1,7.1,4.1,10,7.8,10c2.1,0,4.1-0.8,5.9-2.6L166,43.6z
		 M151.8,33c2.9,0,5.8-0.1,8.8-0.2c0.9,0,1.2-0.3,1.2-1c0.1-2.7-1.7-5.2-4.6-5.2C154.8,26.6,152.5,28.8,151.8,33z"/>
	<path fill="#FFFFFF" d="M190.2,43.3c-2.3,3-5.8,5.4-8.9,5.4c-6.6,0-10.5-5.4-10.5-11c0-4,1.7-7.6,5.2-10.3c2.7-2.1,5.9-2.9,7.9-2.9
		c2.1,0,3.8,0.7,4.7,1.4c0.7,0.6,0.8,1,0.8,1.6c0,1.1-1.2,2.3-1.7,2.3c-0.3,0-0.5-0.2-1-0.6c-1.6-1.5-3.4-2.2-5.3-2.2
		c-3.5,0-6.5,2.9-6.5,8.4c0,7.3,5,9.7,7.9,9.7c2.3,0,4-0.6,6.4-2.9L190.2,43.3z"/>
	<path fill="#FFFFFF" d="M207.2,48.8v-1.4c3.2-0.3,3.5-0.8,3.5-4.5v-9c0-3.7-1.3-6.1-4.9-6.1c-2.1,0-4.2,1.3-5.8,2.7v12.6
		c0,3.6,0.3,3.9,3.5,4.2v1.4h-11.6v-1.4c3.6-0.4,3.9-0.6,3.9-4.2V32.1c0-3.4-0.3-3.6-3.2-4.1v-1.2c2.6-0.5,5.1-1.1,7.5-2.2v4.3
		c1.1-0.8,2.3-1.6,3.6-2.5c1.5-1,2.9-1.6,4.5-1.6c4.2,0,6.9,3,6.9,8.2v10.4c0,3.6,0.3,3.9,3.4,4.2v1.4H207.2z"/>
	<path fill="#FFFFFF" d="M243.8,36.4c0,8.3-6.1,12.3-11.2,12.3c-7.1,0-11.3-5.7-11.3-11.4c0-8.5,6.6-12.4,11.3-12.4
		C239,24.8,243.8,29.9,243.8,36.4z M226.1,35.6c0,6.5,2.8,11.4,7.1,11.4c3.2,0,5.8-2.4,5.8-9.5c0-6.1-2.4-11-6.9-11
		C228.9,26.5,226.1,29.7,226.1,35.6z"/>
	<path fill="#FFFFFF" d="M247.8,48.8v-1.3c3.3-0.3,3.7-0.6,3.7-4V19c0-3.5-0.3-3.7-3.6-3.9v-1.2c2.7-0.3,5.9-1.2,7.7-1.8v31.4
		c0,3.4,0.4,3.7,3.7,4v1.3H247.8z"/>
	<path fill="#FFFFFF" d="M285.1,36.2c0,8.4-6.2,12.5-11.4,12.5c-7.2,0-11.5-5.8-11.5-11.6c0-8.6,6.7-12.6,11.5-12.6
		C280.2,24.5,285.1,29.7,285.1,36.2z M267.1,35.4c0,6.6,2.9,11.5,7.2,11.5c3.2,0,5.9-2.4,5.9-9.6c0-6.1-2.5-11.1-7-11.1
		C269.9,26.2,267.1,29.5,267.1,35.4z M271.8,21.5c1-2.2,3.1-7.4,3.5-8.3c0.5-0.2,3.6-0.6,4.2-0.5l0.2,0.5l-6.5,9L271.8,21.5z"/>
	<path fill="#FFFFFF" d="M311.9,25.6c-0.5,0.8-1.5,2.2-2.4,2.7l-3-0.2c1,1.2,1.6,2.8,1.6,4.7c0,5.7-4.7,8.4-9.2,8.4
		c-0.9,0-1.8-0.2-2.7-0.3c-0.7,0.5-1.6,1.4-1.6,2.2c0,1.1,0.9,2.1,3.3,2.1c1.9,0,3.8-0.1,5.5-0.1c3.3,0,7.6,1.1,7.6,6.2
		c0,5.3-6.2,10.4-13.2,10.4c-5.9,0-9.1-3.4-9.1-6.4c0-1.2,0.5-2.2,1.3-3c1.1-1.1,3.1-2.7,4.4-3.7c-1.9-0.6-3.2-1.8-3.9-2.9
		c-0.5-0.8-0.6-1.7-0.6-2.2c2.1-0.8,3.8-2.2,4.6-3.2c-2.4-1-4.6-3.5-4.6-7.1c0-6,5.4-8.8,9.4-8.8c1.8,0,3.5,0.5,5.1,1.3
		c2.6-0.1,5.3-0.4,7.2-0.7L311.9,25.6z M295.4,50c-1.4,1.1-2.4,2.6-2.4,4.1c0,2.8,3.1,5,7,5c5,0,7.6-2.6,7.6-5.9
		c0-1.8-0.9-3.1-2.4-3.7c-1.3-0.5-2.8-0.7-5.1-0.7C297.5,48.8,296.3,49.2,295.4,50z M294.5,32.5c0,4.1,2,7.1,5,7.1
		c2.3-0.1,4.4-2.1,4.4-6.3c0-4.2-2-7.1-5-7.1C296.5,26.2,294.5,28.4,294.5,32.5z"/>
	<path fill="#FFFFFF" d="M314.2,48.7v-1.4c3.4-0.3,3.8-0.6,3.8-4.3V31.9c0-3.3-0.2-3.6-3.4-4.1v-1.3c2.7-0.4,5.3-1.1,7.6-2.1V43
		c0,3.7,0.4,4,3.8,4.3v1.4H314.2z M317,17.1c0-1.6,1.3-2.8,2.7-2.8c1.5,0,2.7,1.2,2.7,2.8c0,1.5-1.2,2.7-2.7,2.7
		C318.3,19.8,317,18.5,317,17.1z"/>
	<path fill="#FFFFFF" d="M348.4,43.3c-2.3,3-5.8,5.3-8.9,5.3c-6.6,0-10.5-5.3-10.5-10.9c0-4,1.7-7.5,5.2-10.3
		c2.7-2.1,5.9-2.9,7.9-2.9c2.1,0,3.8,0.7,4.7,1.4c0.7,0.6,0.8,1,0.8,1.6c0,1.1-1.2,2.3-1.7,2.3c-0.3,0-0.5-0.2-1-0.6
		c-1.6-1.5-3.4-2.1-5.2-2.1c-3.5,0-6.5,2.9-6.5,8.4c0,7.3,5,9.7,7.9,9.7c2.3,0,4-0.6,6.4-2.9L348.4,43.3z"/>
	<path fill="#FFFFFF" d="M373.9,36.3c0,8.5-6.2,12.6-11.5,12.6c-7.2,0-11.6-5.8-11.6-11.7c0-8.7,6.8-12.7,11.6-12.7
		C369,24.5,373.9,29.7,373.9,36.3z M355.8,35.5c0,6.7,2.9,11.6,7.2,11.6c3.3,0,6-2.4,6-9.7c0-6.2-2.5-11.2-7.1-11.2
		C358.7,26.2,355.8,29.5,355.8,35.5z"/>
	<path fill="#FFFFFF" d="M149.3,95.5c-1.2,0.2-5.2,0.9-8.3,2v-3.5l-3.2,1.9c-2.1,1.2-3.5,1.5-4.2,1.5c-4.3,0-9.9-3.9-9.9-11.3
		c0-7.4,6.5-13.2,13.7-13.2c0.7,0,2.3,0.2,3.5,0.6v-7.5c0-3.5-0.3-3.7-4.1-3.9v-1.3c2.8-0.4,6.3-1.2,8.3-1.9v31.8
		c0,2.8,0.4,3,2.3,3.2l1.7,0.2V95.5z M141,77.7c-1.3-1.9-3.5-2.7-5.5-2.7c-2.5,0-6.9,2.1-6.9,9.8c0,6.3,3.9,9.4,7.3,9.4
		c1.9,0,3.8-0.9,5.1-1.8V77.7z"/>
	<path fill="#FFFFFF" d="M170.7,92.3c-3.6,4.5-7.6,5.6-9.3,5.6c-7,0-11.2-5.7-11.2-12.2c0-3.9,1.4-7.4,3.8-10
		c2.3-2.6,5.4-4.2,8.4-4.2c4.7,0,8.6,4.2,8.6,8.7c0,1.1-0.3,1.6-1.3,1.8c-1,0.2-8.1,0.7-14.9,1c0.1,7.8,4.5,11,8.5,11
		c2.3,0,4.5-0.9,6.5-2.9L170.7,92.3z M155,80.6c3.2,0,6.4-0.1,9.7-0.2c1,0,1.4-0.3,1.4-1.1c0.1-3-1.9-5.7-5-5.7
		C158.4,73.6,155.9,76,155,80.6z"/>
	<path fill="#FFFFFF" d="M213.5,97.6v-1.5c4.5-0.4,4.7-0.7,4.6-6.5l-0.2-22.4h-0.2l-13.4,30.1h-1.1l-12.3-29.4h-0.1l-0.8,15.7
		c-0.2,4.5-0.2,6.9-0.2,9.1c0.1,2.6,1.4,3,5.1,3.4v1.5H182v-1.5c3.2-0.4,4.3-1,4.7-3.3c0.3-1.9,0.6-4.3,1-10.1l0.8-11.4
		c0.5-7.2,0.2-7.4-4.8-7.9v-1.5h9l12.5,27.5L218,61.9h9.4v1.5c-4.8,0.4-5.2,0.5-5.1,6.2l0.5,19.9c0.2,5.8,0.3,6.1,5.1,6.5v1.5H213.5
		z"/>
	<path fill="#FFFFFF" d="M251.3,84.3c0,8.9-6.5,13.2-12,13.2c-7.6,0-12.1-6.1-12.1-12.3c0-9.2,7.1-13.3,12.1-13.3
		C246.1,72,251.3,77.5,251.3,84.3z M232.3,83.5c0,7,3.1,12.2,7.6,12.2c3.4,0,6.3-2.6,6.3-10.2c0-6.5-2.6-11.8-7.4-11.8
		C235.2,73.8,232.3,77.2,232.3,83.5z"/>
	<path fill="#FFFFFF" d="M268.5,97.6v-1.5c3.4-0.3,3.8-0.8,3.8-4.7v-9.5c0-3.9-1.4-6.5-5.2-6.5c-2.3,0-4.5,1.4-6.2,2.9v13.4
		c0,3.9,0.3,4.1,3.7,4.4v1.5h-12.3v-1.5c3.9-0.4,4.2-0.7,4.2-4.4V79.9c0-3.6-0.3-3.8-3.4-4.4v-1.3c2.7-0.5,5.4-1.2,7.9-2.3v4.6
		c1.1-0.9,2.4-1.7,3.8-2.7c1.6-1,3.1-1.7,4.7-1.7c4.5,0,7.3,3.1,7.3,8.6v11c0,3.9,0.3,4.1,3.6,4.4v1.5H268.5z"/>
	<path fill="#FFFFFF" d="M291.5,96.8c-0.9,0.5-1.8,0.7-2.3,0.7c-3.5,0-5.4-2.2-5.4-6.6v-16H280l-0.2-0.6l1.5-1.6h2.5v-4l3.6-3.6
		l0.8,0.1v7.6h6.2c0.5,0.6,0.3,1.8-0.3,2.2h-5.9v14.2c0,4.5,1.8,5.3,3.2,5.3c1.4,0,2.6-0.6,3.4-0.9l0.5,1.4L291.5,96.8z"/>
	<path fill="#FFFFFF" d="M316.1,92.2c-3.5,4.4-7.3,5.4-9,5.4c-6.8,0-10.8-5.5-10.8-11.8c0-3.8,1.4-7.2,3.7-9.7c2.3-2.5,5.3-4,8.1-4
		c4.6,0,8.3,4.1,8.3,8.4c0,1.1-0.3,1.6-1.3,1.8c-0.9,0.2-7.9,0.7-14.5,0.9c0.1,7.5,4.4,10.6,8.3,10.6c2.2,0,4.3-0.9,6.3-2.8
		L316.1,92.2z M300.9,80.9c3.1,0,6.2-0.1,9.4-0.2c1,0,1.3-0.3,1.3-1.1c0.1-2.9-1.8-5.5-4.9-5.5C304.2,74.1,301.8,76.4,300.9,80.9z"
		/>
	<path fill="#FFFFFF" d="M326.2,78.3c1.7-2.8,4.1-6,6.8-6c1.9,0,3.3,1.5,3.3,2.8c0,1.1-0.7,2.2-1.8,2.8c-0.7,0.3-1.2,0.2-1.5-0.1
		c-0.8-0.8-1.5-1.2-2.4-1.2c-1.5,0-3.3,1.7-4.5,4.8v10.3c0,3.7,0.3,4,4.6,4.4v1.5h-12.9v-1.5c3.5-0.3,3.9-0.7,3.9-4.4V80.1
		c0-3.7-0.3-3.9-3.5-4.4v-1.2c2.8-0.4,5.2-1.1,7.9-2.3v6.1H326.2z"/>
	<path fill="#FFFFFF" d="M376.8,92.1c-3.5,4.3-7.2,5.3-9,5.3c-6.8,0-10.7-5.5-10.7-11.7c0-3.8,1.4-7.1,3.6-9.6c2.3-2.5,5.2-4,8.1-4
		c4.6,0,8.2,4.1,8.2,8.3c0,1.1-0.3,1.5-1.3,1.8c-0.9,0.2-7.8,0.7-14.3,0.9c0.1,7.5,4.3,10.5,8.2,10.5c2.2,0,4.3-0.9,6.3-2.7
		L376.8,92.1z M361.8,80.9c3.1,0,6.1-0.1,9.3-0.2c1,0,1.3-0.3,1.3-1.1c0.1-2.9-1.8-5.5-4.8-5.5C365,74.1,362.6,76.4,361.8,80.9z"/>
	<path fill="#FFFFFF" d="M402.1,73.4c-2.8,0.4-3.3,0.9-4.8,3.9c-1.3,2.8-3,7.3-6.7,16.2c-3.6,8.6-4.8,11.7-5.5,14.6
		c-0.3,1-1,1.3-1.7,1.3c-1.5,0-3.1-1.3-3.1-2.6c0-0.9,0.5-1.3,1.4-1.9c1.7-1.1,2.7-2.4,4-4.8c1-1.9,1.5-3,1.7-3.7
		c0.3-0.8,0.3-1.5-0.1-2.4c-2.1-6.1-4.6-12.6-6.2-16.4c-1.1-3-1.7-3.7-4.6-4.1v-1.3h10.9v1.3c-2.5,0.4-2.7,1-2,3l4.9,13.5
		c1.5-3.7,3.8-10,4.9-13.4c0.6-2,0.3-2.6-2.8-3.1v-1.3h9.7V73.4z"/>
	<path fill="#FFFFFF" d="M347.2,78.3c1.7-2.8,4.1-6,6.8-6c1.9,0,3.3,1.5,3.3,2.8c0,1.1-0.7,2.2-1.8,2.8c-0.7,0.3-1.2,0.2-1.5-0.1
		c-0.8-0.8-1.5-1.2-2.4-1.2c-1.5,0-3.3,1.7-4.5,4.8v10.3c0,3.7,0.3,4,4.6,4.4v1.5h-12.9v-1.5c3.5-0.3,3.9-0.7,3.9-4.4V80.1
		c0-3.7-0.3-3.9-3.5-4.4v-1.2c2.8-0.4,5.2-1.1,7.9-2.3v6.1H347.2z"/>
</g>
<path fill="#FFFFFF" d="M105.8,43.9C102,23.2,89.6,9.2,69.6,2.9c-19.9-6.3-38-1.9-53,12.6C-5.2,36.5-4.8,71,17.1,91.9
	c8.1,7.7,17.7,12.4,28.8,14c1.1,0.2,1.3-0.1,1.3-1.1c-0.1-1.6-0.1-3.3,0-4.9c0.1-1.1-0.3-1.5-1.4-1.7c-3.9-0.6-7.7-1.6-11.3-3.3
	c-4.1-1.9-7.7-4.6-10.5-8.5c7.5-0.4,57.9-0.2,59.2,0.3c-1.7,2.3-3.8,4.3-6.2,5.9c-4.6,3.1-9.7,4.8-15.1,5.6
	c-1.4,0.2-1.9,0.7-1.7,2.1c0.1,1.1,0,2.2,0,3.3c0,2.7,0,2.7,2.6,2.2C92,100.4,111.3,73,105.8,43.9z M23.8,64.9
	c0.1,0.3,0.2,0.6,0,1.1C18,60.4,15.7,52,20.2,44.2c2-3.5,4.8-6.2,7.6-9c6.5-6.4,13-12.7,19.5-19.1c3.6-3.6,6.2-7.6,6.2-12.9
	c3.7,1.7,5.9,6.8,4.7,10.7c-0.7,2.5-2.2,4.5-4,6.3C46.5,28,38.6,35.8,30.7,43.6c-4,3.9-7,8.4-7.6,14.2
	C22.9,60.2,23.3,62.5,23.8,64.9z M30.5,68.6c-1.7-2.2-2.6-4.3-3-6.7c-0.6-4.4,0.8-8.2,3.1-11.8c2.6-4.1,6.4-7.2,9.8-10.6
	c7.5-7.6,15.5-14.7,22.7-22.7c2.5-2.8,4.6-6,5.1-10.1c3.6,2.7,4.6,7.9,2.7,12.3c-1.1,2.5-2.8,4.4-4.7,6.3
	c-8.7,8.8-17.5,17.5-26.5,26c-2.1,2-3.9,4.3-5.5,6.7C32.2,61.1,30.7,64.4,30.5,68.6z M40.5,83.5c-3.2-2.7-4.9-5.7-5.3-9.4
	c-0.9-7.9,2.2-14.4,7.6-19.8c7.6-7.7,15.5-15.2,23.2-22.8c3.5-3.5,7-7.1,9.1-11.7c2.8,6,1.6,12-3.7,17.3c-7,7.1-14.2,14-21.3,21
	c-4.7,4.7-8.5,9.9-9.8,16.5C39.7,77.4,39.8,80.2,40.5,83.5z M83.1,59.3c-3.1,3.2-6.4,6.3-9.5,9.5c-4.1,4.2-7.8,8.6-9.2,14.7
	c-2.5-3.2-2.9-6.5-2-10.2c1.2-5.5,4.8-9.3,8.7-13c4.4-4.1,8.7-8.3,13.1-12.5c1.1-1,1.9-2.2,2.9-3.6C88.2,50.2,87.1,55.1,83.1,59.3z
	 M86.9,37.6c-1.1,2-2.6,3.6-4.2,5.2c-6.5,6.3-13,12.6-19.4,18.9c-4.1,4.1-7.8,8.4-9.9,13.9c-0.4,1.1-0.8,2.2-0.9,3.3
	c0,1.2,0,2.5,0,3.7c0,0.5-0.2,0.8-0.6,0.2c-2.6-3.5-4.5-7.2-4-11.8c0.4-3.3,1.9-6.2,4-8.7c3.8-4.7,8.4-8.6,12.7-12.9
	C71,43,78,37.1,83.9,29.9c1.2-1.5,2.3-3.1,3.3-5.1C89,29.4,89.2,33.5,86.9,37.6z"/>
</svg>
