<?xml version="1.0" encoding="utf-8"?>
<!-- Generator: Adobe Illustrator 21.0.2, SVG Export Plug-In . SVG Version: 6.00 Build 0)  -->
<svg version="1.1" baseProfile="tiny" id="Layer_1" xmlns="http://www.w3.org/2000/svg" xmlns:xlink="http://www.w3.org/1999/xlink"
	 x="0px" y="0px" viewBox="0 0 450 78" xml:space="preserve">
<g>
	<g>
		<path fill="#FFFFFF" d="M177.8,38.7c0.8-13.8,13.2-18,25.3-18c10.7,0,23.6,2.4,23.6,15.3v28c0,4.9,0.5,9.8,1.9,12h-15
			c-0.5-1.7-0.9-3.4-1-5.2c-4.7,4.9-11.6,6.7-18.1,6.7c-10.2,0-18.3-5.1-18.3-16.1c0-12.2,9.2-15.1,18.3-16.3
			c9.1-1.4,17.5-1,17.5-7.1c0-6.3-4.4-7.3-9.6-7.3c-5.6,0-9.3,2.3-9.8,8.1H177.8z M211.9,49.6c-2.5,2.2-7.7,2.3-12.3,3.1
			c-4.6,0.9-8.7,2.5-8.7,7.9c0,5.5,4.3,6.9,9.1,6.9c11.6,0,12-9.2,12-12.4V49.6z"/>
		<path fill="#FFFFFF" d="M269.6,41.1c-0.9-6-4.8-9.3-10.9-9.3c-9.5,0-12.6,9.6-12.6,17.5c0,7.7,3,17,12.3,17
			c6.9,0,10.8-4.4,11.8-10.9h14.3c-1.9,14.3-11.8,22.1-25.9,22.1c-16.2,0-27.2-11.4-27.2-27.6c0-16.8,10-29.1,27.5-29.1
			c12.7,0,24.4,6.7,25.3,20.4H269.6z"/>
		<path fill="#FFFFFF" d="M306.2,22.1H317V32h-10.8v26.6c0,5,1.2,6.2,6.2,6.2c1.6,0,3-0.1,4.6-0.4V76c-2.5,0.4-5.7,0.5-8.6,0.5
			c-9.1,0-17-2.1-17-12.8V32h-9v-9.9h9V6h14.8V22.1z"/>
		<path fill="#FFFFFF" d="M369.4,75.9h-14.1v-7.5H355c-3.7,6-10.2,9-16.4,9c-15.7,0-19.7-8.8-19.7-22.2V22.1h14.8v30.4
			c0,8.8,2.6,13.2,9.5,13.2c8,0,11.4-4.5,11.4-15.4V22.1h14.8V75.9z M346.6,15.5h-10.3l10-14.8h16.3L346.6,15.5z"/>
		<path fill="#FFFFFF" d="M374.8,38.7c0.8-13.8,13.2-18,25.3-18c10.7,0,23.6,2.4,23.6,15.3v28c0,4.9,0.5,9.8,1.9,12h-15
			c-0.5-1.7-0.9-3.4-1-5.2c-4.7,4.9-11.6,6.7-18.1,6.7c-10.2,0-18.3-5.1-18.3-16.1c0-12.2,9.2-15.1,18.3-16.3
			c9.1-1.4,17.5-1,17.5-7.1c0-6.3-4.4-7.3-9.6-7.3c-5.6,0-9.3,2.3-9.8,8.1H374.8z M408.9,49.6c-2.5,2.2-7.7,2.3-12.3,3.1
			c-4.6,0.9-8.7,2.5-8.7,7.9c0,5.5,4.3,6.9,9.1,6.9c11.6,0,12-9.2,12-12.4V49.6z"/>
		<path fill="#DE268F" d="M430.6,59.9h16.3v16h-16.3V59.9z"/>
	</g>
	<g>
		<path fill="#DE268F" d="M7.3,21.8h6v12.6h0.2c3.3-8.6,10.6-13.7,20.3-13.3v6.6c-11.9-0.6-20,8.1-20,19.3v28.6H7.3V21.8z"/>
		<path fill="#DE268F" d="M39.4,50.4c0.1,9.6,5.1,21.1,17.7,21.1c9.6,0,14.8-5.6,16.9-13.7h6.6C77.7,70,70.6,77.1,57.1,77.1
			c-17.1,0-24.2-13.1-24.2-28.4c0-14.2,7.2-28.4,24.2-28.4c17.3,0,24.1,15.1,23.6,30.2H39.4z M74.2,44.9
			c-0.3-9.9-6.5-19.2-17.1-19.2c-10.7,0-16.7,9.4-17.7,19.2H74.2z"/>
		<path fill="#DE268F" d="M97.4,21.8h10.9v5.5H97.4v36.2c0,4.3,0.6,6.8,5.3,7.1c1.9,0,3.7-0.1,5.6-0.3v5.6c-2,0-3.9,0.2-5.8,0.2
			c-8.7,0-11.8-2.9-11.7-12.1V27.3h-9.4v-5.5h9.4V5.7h6.6V21.8z"/>
		<path fill="#DE268F" d="M163.3,48.6c0,15.4-9,28.4-25.4,28.4c-16.4,0-25.4-13-25.4-28.4s9-28.4,25.4-28.4
			C154.3,20.2,163.3,33.2,163.3,48.6z M119,48.6c0,11.4,6.2,22.9,18.8,22.9c12.6,0,18.8-11.4,18.8-22.9c0-11.4-6.2-22.9-18.8-22.9
			C125.3,25.7,119,37.2,119,48.6z"/>
	</g>
</g>
</svg>
